<?xml version="1.0" standalone="no"?>
<!DOCTYPE svg PUBLIC "-//W3C//DTD SVG 20010904//EN"
 "http://www.w3.org/TR/2001/REC-SVG-20010904/DTD/svg10.dtd">
<svg version="1.0" xmlns="http://www.w3.org/2000/svg"
 width="300.000000pt" height="300.000000pt" viewBox="0 0 300.000000 300.000000"
 preserveAspectRatio="xMidYMid meet">
<metadata>
Created by potrace 1.10, written by Peter Selinger 2001-2011
</metadata>
<g transform="translate(0.000000,300.000000) scale(0.050000,-0.050000)"
fill="#aaaaaa" stroke="none">
<path d="M2604 5614 l-386 -387 199 -191 200 -192 -196 -192 -195 -192 193
-190 194 -191 -538 -535 -538 -535 542 -539 543 -540 -198 -195 -198 -195 257
-254 258 -255 -195 -195 c-107 -107 -190 -197 -184 -200 5 -3 153 -148 329
-321 l319 -315 1495 1495 1495 1495 -1505 1505 -1505 1505 -386 -386z m488 15
c27 -36 72 -71 100 -78 27 -7 45 -20 40 -29 -6 -9 10 -27 34 -40 25 -13 57
-51 71 -83 16 -35 42 -59 64 -59 24 0 43 -19 51 -51 7 -28 18 -46 24 -40 6 6
36 -18 67 -53 31 -35 57 -56 57 -47 0 9 14 5 30 -9 35 -29 41 -69 7 -48 -15 9
-18 5 -9 -9 8 -13 22 -19 30 -14 20 12 302 -254 302 -285 0 -13 7 -22 17 -19
32 10 545 -531 533 -561 -8 -22 -5 -24 15 -8 19 16 62 -17 175 -136 83 -86
142 -151 132 -145 -10 6 -12 1 -4 -12 8 -13 23 -23 33 -23 11 0 138 -122 284
-270 398 -407 452 -466 440 -478 -6 -7 2 -12 18 -12 16 0 49 -27 74 -60 24
-33 37 -60 28 -60 -9 0 -18 -19 -20 -43 -3 -46 -35 -87 -66 -87 -10 0 -19 -7
-19 -15 0 -33 -90 -115 -115 -106 -15 6 -22 2 -15 -9 6 -10 -52 -84 -129 -164
-77 -80 -152 -159 -168 -176 -91 -98 -264 -249 -279 -245 -9 4 -12 -3 -5 -13
6 -10 -9 -35 -35 -55 -25 -21 -61 -59 -80 -86 -19 -28 -34 -44 -34 -36 0 7
-42 -31 -92 -86 -51 -54 -101 -93 -110 -87 -10 5 -18 -1 -18 -16 0 -14 -52
-76 -115 -136 -63 -61 -113 -114 -112 -120 1 -5 -15 -27 -35 -48 -35 -36 -38
-36 -38 -4 0 19 -9 29 -19 23 -11 -7 -15 -23 -10 -37 16 -40 -273 -323 -296
-290 -14 19 -16 16 -7 -10 7 -21 -1 -50 -18 -67 -17 -16 -30 -26 -30 -21 0 5
-36 -27 -80 -71 -44 -44 -80 -89 -80 -101 0 -11 -6 -15 -13 -8 -7 7 -29 -9
-50 -35 -21 -27 -69 -68 -107 -91 -39 -24 -76 -65 -82 -93 -7 -27 -18 -44 -23
-38 -6 6 -25 -5 -43 -24 -18 -19 -50 -45 -72 -58 -22 -13 -38 -33 -35 -45 3
-12 -2 -20 -11 -17 -22 7 -133 -105 -150 -151 -8 -20 -24 -30 -36 -23 -12 8
-29 3 -38 -11 -22 -36 -97 10 -122 76 -16 42 -24 47 -39 23 -14 -23 -18 -19
-19 16 0 27 -12 45 -30 45 -16 0 -30 14 -30 30 0 27 -24 39 -65 32 -8 -1 -15
8 -15 19 0 12 -13 35 -28 50 -36 36 -31 68 21 135 41 52 147 108 147 78 0 -45
218 -92 234 -51 5 13 22 20 38 14 15 -6 28 -1 28 11 0 12 14 22 30 22 17 0 30
7 30 15 0 8 41 33 90 54 50 22 90 50 90 63 0 13 27 34 60 48 33 14 56 31 51
39 -5 8 143 165 330 350 186 185 339 343 339 350 0 8 23 26 50 41 28 15 50 33
50 41 0 25 154 179 179 179 13 0 19 8 13 17 -6 9 12 29 39 43 27 15 49 35 49
45 0 9 11 11 25 3 14 -8 18 -7 10 2 -19 21 104 153 128 138 9 -6 17 1 17 16 1
30 618 648 641 642 8 -3 13 23 11 56 -3 33 3 65 12 70 9 6 16 29 16 52 0 32
-6 36 -27 18 -22 -18 -42 -5 -98 63 -39 47 -229 244 -423 439 -193 195 -352
364 -352 375 0 12 -19 21 -42 21 -32 0 -39 9 -29 34 7 19 7 29 1 22 -15 -14
-250 217 -250 245 0 11 -8 17 -17 14 -23 -7 -441 408 -437 432 2 11 -17 31
-43 44 -63 33 -81 53 -88 99 -9 55 -56 136 -70 122 -6 -7 6 -32 27 -57 l38
-45 -45 38 c-25 21 -45 31 -45 23 0 -9 -17 6 -38 32 -27 33 -32 51 -15 61 13
9 -4 20 -42 28 -38 8 -65 25 -65 43 0 17 -12 25 -28 19 -15 -6 -36 -2 -46 8
-11 11 -50 36 -88 57 -37 21 -66 45 -65 54 5 22 -139 23 -155 1 -12 -16 -58
-29 -116 -32 -16 -1 -23 -8 -15 -15 20 -21 -48 -87 -89 -87 -20 0 -41 -9 -48
-20 -7 -11 3 -15 24 -8 30 10 31 8 6 -10 -38 -27 -86 -29 -70 -2 7 11 -4 20
-24 20 -69 0 -138 178 -82 212 16 10 18 3 8 -24 -15 -40 113 101 173 190 19
29 35 45 35 36 0 -8 13 -4 28 10 15 14 24 32 20 39 -8 14 52 45 77 40 8 -2 15
11 15 28 0 16 13 35 30 42 16 6 26 18 20 26 -30 49 101 -15 142 -70z m1028
-3744 l-1110 -1116 -109 105 c-86 83 -105 110 -85 130 45 45 4 174 -88 278
-15 17 -21 38 -13 46 8 9 5 12 -6 9 -12 -4 -55 22 -96 58 -41 36 -69 65 -63
65 7 0 5 11 -4 25 -15 24 -23 139 -9 125 4 -4 26 10 49 31 49 46 101 50 138
10 94 -105 109 -116 212 -157 90 -36 282 17 284 79 0 12 20 36 45 52 44 29
491 472 841 833 98 100 181 182 185 182 29 0 270 278 272 315 2 25 4 58 5 74
2 30 -293 360 -428 479 -38 34 -130 125 -205 202 -74 77 -142 147 -150 154 -8
8 -136 134 -285 280 -148 146 -277 263 -286 260 -10 -3 -12 3 -6 14 15 23
-117 102 -170 102 -23 0 -35 9 -28 20 27 43 -44 7 -161 -82 -181 -138 -205
-148 -251 -106 -27 24 -38 27 -38 8 0 -57 -26 3 -31 70 -4 56 10 90 64 156 38
46 82 99 97 117 15 19 22 53 16 75 -7 27 -1 42 17 43 18 0 16 7 -8 21 -56 32
-44 54 120 228 l155 164 1120 -1117 1119 -1116 -1109 -1116z m-394 1840 l734
-735 -725 -725 c-399 -399 -729 -724 -735 -722 -55 14 -363 380 -341 405 42
51 -44 257 -90 216 -8 -8 -10 2 -2 22 7 20 4 31 -6 25 -10 -7 -31 6 -46 29
-16 22 -33 36 -37 31 -5 -5 -27 18 -49 50 -21 33 -54 64 -73 70 -19 6 -29 23
-24 38 6 15 0 34 -14 42 -17 11 -19 7 -7 -13 14 -24 12 -24 -17 -1 -19 16 -34
38 -34 51 0 12 -20 32 -45 43 -25 11 -42 34 -38 50 3 16 0 23 -8 15 -17 -17
-69 32 -69 66 0 14 -5 19 -12 13 -23 -24 -152 103 -134 131 7 11 3 15 -8 8
-22 -14 -88 50 -125 122 -24 47 -12 124 20 124 11 0 19 10 19 21 0 26 60 90
61 65 0 -9 9 0 21 19 11 19 33 35 49 35 16 0 29 9 29 21 0 29 140 170 162 164
10 -3 16 4 13 14 -5 20 241 259 254 246 4 -5 13 11 21 34 7 23 21 36 31 30 10
-6 13 4 5 23 -9 24 -5 30 11 20 14 -9 23 -2 23 17 0 17 13 31 29 31 30 0 78
89 100 185 7 32 3 55 -9 55 -44 0 -13 46 152 219 95 100 174 181 177 181 2 0
334 -331 737 -735z"/>
<path d="M4952 5937 c6 -9 -9 -17 -32 -17 -24 0 -37 -9 -30 -20 7 -12 21 -15
31 -9 11 6 19 2 19 -10 0 -11 11 -21 23 -21 13 0 18 6 11 13 -7 7 -4 28 6 46
13 25 10 34 -10 34 -16 0 -24 -7 -18 -16z"/>
<path d="M5180 5899 c0 -12 11 -15 25 -6 18 10 17 5 -2 -18 -15 -19 -22 -45
-16 -59 6 -16 10 -12 11 10 1 20 11 31 22 24 11 -7 20 6 20 29 0 23 -13 41
-30 41 -16 0 -30 -10 -30 -21z"/>
<path d="M5780 5531 c0 -38 -8 -47 -35 -38 -30 9 -30 7 -5 -11 44 -31 81 -27
67 8 -6 17 0 44 13 60 20 25 19 30 -8 30 -21 0 -32 -17 -32 -49z"/>
<path d="M5902 5565 c9 -55 -5 -83 -37 -72 -30 9 -30 7 -5 -11 51 -36 73 -25
73 38 0 33 -7 60 -16 60 -9 0 -16 -7 -15 -15z"/>
<path d="M959 3969 l-191 -190 197 -199 196 -198 190 191 c104 105 189 197
189 205 0 15 -366 382 -381 382 -5 0 -95 -86 -200 -191z m301 -145 c0 -15 9
-21 20 -14 11 7 20 -5 20 -26 0 -45 -66 -111 -90 -89 -9 8 -10 4 -3 -9 29 -50
-54 -64 -110 -19 -102 83 -7 280 104 216 33 -18 59 -45 59 -59z"/>
<path d="M195 3205 l-194 -195 193 -196 194 -196 190 186 c105 102 195 189
200 192 6 3 -79 95 -189 205 l-199 199 -195 -195z m286 -167 c46 -85 -98 -184
-160 -110 -45 54 -40 110 12 151 58 45 110 31 148 -41z"/>
<path d="M960 2430 l-189 -190 189 -194 c105 -107 191 -197 192 -201 1 -3 91
84 201 194 l199 199 -191 191 c-106 105 -196 191 -202 191 -5 0 -95 -85 -199
-190z m269 -141 c49 -50 10 -149 -59 -149 -37 0 -110 71 -110 106 0 67 115 96
169 43z"/>
</g>
</svg>
