 <svg  version="1.0" xmlns="http://www.w3.org/2000/svg"  width="900.000000pt" height="900.000000pt" viewBox="0 0 900.000000 900.000000"  preserveAspectRatio="xMidYMid meet">  <g transform="translate(0.000000,900.000000) scale(0.100000,-0.100000)" fill="#aaaaaa" stroke="none"> <path d="M4120 8794 c-41 -7 -95 -13 -120 -13 -55 -1 -235 -28 -312 -47 -32 -8 -70 -14 -84 -14 -14 0 -47 -7 -73 -15 -25 -8 -91 -26 -146 -40 -55 -14 -113 -30 -130 -35 -16 -5 -52 -16 -80 -24 -107 -32 -267 -91 -380 -142 -16 -7 -57 -25 -90 -40 -100 -44 -304 -149 -360 -185 -16 -10 -37 -22 -45 -26 -8 -3 -33 -18 -55 -32 -22 -14 -44 -28 -50 -31 -55 -27 -410 -281 -440 -315 -5 -6 -31 -27 -56 -47 -126 -100 -407 -381 -507 -507 -20 -25 -41 -50 -47 -56 -32 -29 -315 -424 -315 -440 0 -2 -12 -21 -26 -42 -14 -21 -30 -47 -35 -58 -5 -11 -18 -33 -29 -50 -45 -71 -147 -275 -225 -450 -47 -106 -110 -275 -141 -380 -8 -27 -19 -63 -24 -80 -5 -16 -21 -75 -35 -130 -14 -55 -32 -123 -40 -151 -8 -28 -15 -60 -15 -72 0 -11 -6 -47 -14 -79 -16 -68 -39 -229 -62 -438 -18 -173 -16 -621 5 -785 31 -247 44 -329 57 -382 8 -32 14 -67 14 -79 0 -12 7 -45 15 -73 8 -28 26 -96 40 -151 14 -55 30 -113 35 -130 5 -16 16 -52 24 -80 31 -105 94 -274 141 -380 76 -172 178 -375 226 -450 10 -16 22 -37 26 -45 3 -8 18 -33 32 -55 14 -22 28 -44 31 -50 28 -55 289 -420 312 -436 4 -3 19 -21 33 -40 84 -113 407 -436 555 -553 167 -133 448 -336 465 -336 2 0 21 -12 42 -26 21 -14 47 -30 58 -35 11 -5 34 -18 50 -28 96 -61 387 -203 525 -256 25 -9 53 -21 63 -26 21 -11 170 -63 242 -85 28 -8 64 -19 80 -24 17 -5 75 -21 130 -35 55 -14 123 -32 151 -40 28 -8 60 -15 72 -15 11 0 47 -6 79 -14 65 -15 221 -37 428 -61 186 -21 564 -21 750 0 226 26 366 46 427 61 32 8 67 14 79 14 12 0 45 7 73 15 28 8 96 26 151 40 55 14 114 30 130 35 17 5 53 16 80 24 72 22 221 74 242 85 10 5 38 17 63 26 46 18 60 24 165 71 100 44 304 149 360 185 17 10 39 23 50 28 11 5 37 21 58 35 21 14 40 26 42 26 17 0 303 206 465 336 150 120 430 398 538 533 20 25 41 51 47 56 32 29 315 424 315 440 0 2 12 21 26 42 14 21 30 47 35 58 5 11 18 34 28 50 61 96 203 387 256 525 9 25 21 53 26 63 11 21 63 170 85 242 8 28 19 64 24 80 5 17 21 75 35 130 14 55 32 123 40 151 8 28 15 61 15 73 0 12 6 47 14 79 16 63 37 211 62 437 18 173 16 621 -5 785 -31 247 -44 329 -57 382 -8 32 -14 67 -14 79 0 12 -7 45 -15 73 -8 28 -26 96 -40 151 -14 55 -30 114 -35 130 -5 17 -16 53 -24 80 -31 104 -92 269 -141 380 -66 151 -180 379 -226 450 -10 17 -23 39 -28 50 -5 11 -21 37 -35 58 -14 21 -26 40 -26 42 0 16 -283 411 -315 440 -6 6 -27 31 -47 56 -108 135 -416 441 -530 525 -17 13 -34 28 -37 32 -16 23 -381 284 -436 312 -5 3 -28 17 -50 31 -22 14 -47 29 -55 32 -8 4 -28 16 -45 26 -73 47 -288 154 -450 225 -119 53 -274 110 -380 142 -27 8 -63 19 -80 24 -16 5 -75 21 -130 35 -55 14 -121 32 -146 40 -26 8 -59 15 -73 15 -14 0 -52 6 -84 14 -61 15 -201 35 -427 61 -175 19 -632 19 -745 -1z m595 -84 c55 -6 132 -12 170 -15 132 -10 346 -42 490 -75 28 -6 61 -13 75 -16 14 -3 48 -11 75 -19 28 -8 79 -21 115 -30 36 -10 76 -22 90 -27 14 -6 39 -14 55 -18 17 -4 75 -24 130 -45 55 -20 114 -41 132 -46 18 -5 35 -14 38 -19 4 -6 13 -10 21 -10 54 0 525 -249 707 -373 38 -26 70 -47 73 -47 3 0 51 -35 107 -77 555 -418 984 -928 1274 -1513 84 -172 123 -257 123 -274 0 -8 4 -17 10 -21 5 -3 14 -20 19 -38 5 -18 26 -77 46 -132 21 -55 41 -113 45 -130 4 -16 12 -41 18 -55 5 -14 17 -54 27 -90 9 -36 22 -87 30 -115 25 -94 38 -150 45 -195 4 -25 12 -72 18 -105 30 -165 42 -247 42 -296 0 -30 5 -81 10 -114 16 -94 22 -419 10 -545 -6 -63 -15 -160 -19 -215 -11 -124 -39 -308 -72 -455 -6 -25 -12 -56 -15 -70 -3 -14 -11 -47 -19 -75 -8 -27 -21 -79 -30 -115 -10 -36 -23 -81 -30 -100 -7 -19 -22 -64 -34 -100 -11 -36 -30 -90 -41 -120 -12 -30 -26 -69 -31 -87 -5 -18 -14 -35 -19 -38 -6 -4 -10 -13 -10 -21 0 -15 -33 -88 -111 -249 -84 -171 -176 -332 -264 -461 -25 -36 -45 -67 -45 -70 0 -9 -153 -208 -249 -324 -122 -147 -364 -389 -511 -511 -116 -96 -315 -249 -324 -249 -3 0 -35 -21 -73 -47 -120 -82 -295 -182 -458 -262 -160 -78 -234 -111 -249 -111 -8 0 -17 -4 -21 -10 -3 -5 -20 -14 -38 -19 -18 -5 -77 -26 -132 -46 -55 -20 -113 -40 -130 -44 -16 -5 -41 -13 -55 -19 -14 -5 -54 -17 -90 -27 -36 -9 -87 -22 -115 -30 -27 -8 -61 -16 -75 -19 -14 -3 -45 -9 -70 -15 -147 -33 -331 -61 -455 -72 -55 -4 -147 -12 -205 -18 -133 -13 -315 -13 -450 0 -58 5 -152 14 -210 18 -129 11 -310 39 -460 72 -25 6 -56 12 -70 15 -14 3 -47 11 -75 19 -27 8 -79 21 -115 30 -36 10 -81 23 -100 30 -19 7 -64 22 -100 34 -36 11 -90 30 -120 41 -30 12 -69 26 -87 31 -18 5 -35 14 -38 19 -4 6 -13 10 -21 10 -15 0 -92 34 -249 111 -170 83 -332 176 -461 264 -36 25 -67 45 -70 45 -9 0 -208 153 -324 249 -147 122 -389 364 -511 511 -96 116 -249 315 -249 324 0 3 -20 34 -45 70 -88 129 -181 291 -264 461 -77 157 -111 234 -111 249 0 8 -4 17 -10 21 -5 3 -14 20 -19 38 -5 18 -19 57 -31 87 -11 30 -30 84 -41 120 -12 36 -27 81 -34 100 -12 33 -21 67 -61 223 -9 34 -22 84 -30 111 -8 26 -14 58 -14 70 0 11 -6 50 -14 86 -18 81 -44 271 -51 370 -3 41 -10 118 -15 170 -12 122 -12 317 0 445 6 55 13 134 15 175 5 72 24 207 46 335 6 33 14 80 19 105 7 46 21 104 45 195 8 28 21 79 30 115 10 36 22 76 27 90 6 14 14 39 18 55 4 17 24 75 45 130 20 55 41 114 46 132 5 18 14 35 19 38 6 4 10 13 10 21 0 54 249 525 373 707 26 38 47 70 47 73 0 3 35 51 77 107 355 471 758 836 1248 1130 154 92 507 267 539 267 8 0 17 4 21 10 3 5 20 14 38 19 18 5 57 19 87 31 30 12 69 25 85 30 29 8 56 17 135 45 19 7 64 20 100 30 36 9 88 22 115 30 28 8 61 16 75 19 14 3 48 10 75 16 146 33 354 64 500 76 44 3 114 10 155 14 112 11 342 11 455 0z"/> <path d="M4478 8588 c-1 -2 -5 -174 -8 -383 l-5 -380 -45 1 c-132 3 -500 -33 -519 -51 -1 -2 0 -8 3 -14 8 -12 134 -4 236 14 80 15 314 24 325 13 4 -4 9 -803 5 -909 0 -4 -37 -5 -83 -4 -92 3 -254 -18 -270 -34 -14 -14 136 -14 257 -1 49 6 91 9 93 7 2 -2 4 -208 4 -457 1 -478 1 -478 -44 -464 -24 7 -97 -5 -97 -17 0 -5 32 -9 70 -9 39 0 70 -3 70 -7 0 -5 2 -154 4 -333 3 -179 7 -340 11 -357 18 -85 25 7 25 338 l0 359 29 0 c15 0 66 -6 112 -14 151 -25 177 -28 184 -16 10 16 1 22 -47 31 -24 4 -63 12 -88 18 -25 6 -77 10 -117 11 l-72 0 -3 448 c-2 325 0 451 8 461 10 11 27 11 95 2 45 -6 103 -11 127 -11 53 0 122 -12 277 -47 144 -33 175 -37 175 -26 0 18 -151 73 -202 73 -15 0 -38 4 -52 10 -40 15 -312 42 -359 35 -23 -3 -47 -2 -54 3 -9 6 -13 117 -13 455 -1 245 1 451 4 456 8 13 248 2 328 -15 37 -8 84 -14 105 -14 32 0 133 -18 336 -60 21 -4 44 -13 50 -19 6 -6 27 -11 47 -11 20 0 40 -4 46 -9 5 -6 27 -14 49 -20 52 -12 103 -30 138 -47 16 -8 37 -14 47 -14 10 0 21 -4 24 -9 3 -5 17 -12 32 -15 43 -11 277 -123 414 -198 63 -35 269 -171 350 -231 50 -37 235 -192 269 -225 8 -7 24 -20 37 -29 35 -22 30 -39 -28 -91 -53 -48 -166 -160 -432 -431 -81 -83 -155 -151 -163 -151 -8 0 -26 14 -40 30 -27 33 -43 38 -43 15 0 -8 14 -24 30 -37 17 -12 30 -29 30 -39 0 -9 -24 -36 -52 -60 -84 -70 -543 -542 -546 -563 -3 -14 0 -16 12 -9 17 9 216 205 460 453 105 107 153 149 165 145 31 -12 265 -325 358 -480 50 -84 183 -385 183 -415 0 -6 4 -18 9 -28 10 -19 22 -63 55 -207 34 -144 46 -214 46 -276 0 -30 5 -88 10 -129 6 -41 6 -78 1 -83 -8 -8 -899 -12 -908 -4 -2 3 -6 49 -8 103 -2 55 -8 112 -14 127 -6 16 -11 40 -11 54 0 37 -65 223 -112 323 -63 131 -154 262 -235 337 -27 25 -33 37 -28 55 6 20 3 19 -29 -11 -39 -38 -44 -46 -21 -37 27 10 43 -4 112 -97 112 -150 177 -270 232 -427 32 -92 81 -330 81 -394 l0 -36 -142 0 c-141 0 -177 -7 -164 -29 5 -7 58 -11 157 -11 156 0 153 1 150 -45 -3 -40 -33 -202 -53 -284 -18 -77 -24 -97 -49 -156 -4 -11 -18 -45 -30 -75 -13 -30 -33 -71 -45 -90 -23 -39 -40 -100 -27 -100 38 0 203 380 203 469 0 16 5 42 11 58 6 15 12 71 14 123 l3 95 448 5 c292 3 453 2 461 -5 24 -20 -15 -352 -63 -535 -14 -52 -29 -111 -34 -130 -21 -85 -77 -225 -147 -365 -45 -91 -55 -110 -84 -155 -63 -95 -84 -163 -41 -128 41 34 167 260 222 398 12 30 28 67 36 82 8 14 14 35 14 45 0 10 4 23 9 28 6 6 14 28 20 50 5 22 19 72 31 110 11 39 25 93 30 120 29 164 42 272 44 367 0 58 4 109 8 113 9 9 900 7 909 -2 9 -10 -7 -296 -20 -348 -6 -22 -11 -58 -11 -80 0 -22 -12 -96 -25 -165 -38 -186 -44 -209 -55 -229 -5 -11 -10 -33 -10 -50 0 -16 -4 -32 -9 -36 -5 -3 -15 -30 -21 -60 -6 -30 -16 -57 -21 -60 -5 -4 -9 -16 -9 -28 0 -12 -7 -31 -15 -41 -8 -11 -15 -27 -15 -37 0 -23 -57 -154 -142 -324 -69 -138 -101 -195 -173 -305 -65 -99 -84 -140 -66 -140 10 0 100 108 111 133 3 7 18 32 34 57 56 86 171 311 229 450 57 136 138 376 152 450 4 19 13 58 20 85 41 151 75 410 78 592 2 73 5 135 9 138 4 4 170 6 370 6 200 -1 369 3 377 8 7 5 10 14 6 20 -5 9 -104 12 -375 10 -203 -1 -372 1 -378 4 -5 4 -9 71 -10 149 -1 150 -19 301 -62 523 -28 144 -116 426 -187 595 -61 145 -170 360 -232 455 -14 22 -28 45 -31 50 -36 74 -280 386 -377 482 -35 34 -63 66 -63 70 0 4 117 125 260 268 240 239 285 292 245 283 -17 -3 -515 -497 -515 -510 0 -24 -38 1 -117 78 -142 137 -434 351 -618 451 -204 111 -471 225 -611 262 -18 5 -37 12 -45 16 -7 5 -29 12 -48 15 -20 4 -79 19 -131 32 -222 59 -439 90 -628 90 -82 0 -145 4 -148 10 -4 5 -6 170 -5 367 1 196 -1 364 -5 374 -5 15 -19 22 -26 15z m2402 -1812 c11 -19 24 -36 28 -38 12 -5 123 -137 193 -228 96 -125 204 -287 279 -420 49 -87 170 -345 170 -363 0 -7 7 -22 15 -33 8 -10 15 -27 15 -37 0 -11 6 -31 14 -45 17 -34 35 -86 47 -137 6 -21 14 -44 18 -50 5 -5 11 -26 14 -45 2 -19 9 -48 15 -65 41 -118 100 -511 103 -685 1 -58 1 -109 0 -115 -1 -10 -898 -11 -909 -1 -3 3 -6 52 -8 108 -2 119 -22 295 -35 320 -5 9 -9 29 -9 45 0 15 -6 48 -14 73 -8 25 -22 72 -31 105 -9 33 -23 75 -31 93 -8 18 -14 38 -14 46 0 7 -18 55 -41 107 -120 278 -268 509 -430 673 -69 69 -82 98 -54 114 16 9 496 483 570 565 24 26 51 47 59 47 8 0 24 -15 36 -34z"/> <path d="M3610 8225 c-19 -7 -64 -21 -100 -30 -156 -41 -397 -124 -525 -180 -39 -16 -355 -173 -375 -185 -8 -5 -51 -31 -95 -57 -105 -62 -288 -186 -344 -232 -62 -52 -113 -89 -138 -102 -13 -7 -23 -18 -23 -25 0 -7 46 -66 103 -131 56 -66 127 -150 157 -188 30 -37 67 -82 82 -99 102 -121 170 -202 218 -261 30 -37 60 -73 66 -79 14 -15 167 -199 234 -282 30 -37 69 -84 87 -103 18 -20 128 -151 245 -291 116 -140 239 -287 272 -326 34 -40 86 -102 116 -139 30 -37 64 -78 75 -90 33 -38 58 -68 100 -120 22 -27 47 -56 55 -65 8 -9 40 -47 70 -84 161 -199 325 -391 402 -471 48 -49 88 -93 88 -97 0 -16 -36 -7 -80 18 -119 69 -191 106 -385 199 -66 32 -183 88 -260 125 -77 37 -212 102 -300 144 -88 42 -167 81 -175 86 -8 6 -22 13 -30 16 -20 7 -141 64 -160 75 -8 5 -24 13 -35 18 -11 5 -83 39 -160 76 -77 37 -187 89 -245 117 -58 27 -112 54 -120 59 -8 5 -22 12 -30 15 -33 14 -525 251 -737 356 -90 44 -170 78 -179 76 -21 -4 -144 -290 -174 -403 -4 -16 -12 -41 -18 -55 -21 -51 -61 -204 -86 -325 -10 -44 -21 -100 -27 -125 -19 -91 -49 -429 -49 -565 0 -215 45 -625 71 -641 5 -3 31 1 57 10 26 8 76 19 112 25 84 13 173 29 230 43 25 5 70 14 100 18 88 13 231 38 285 49 59 12 175 34 300 56 152 27 257 45 335 60 41 8 116 21 165 30 50 9 124 22 165 30 41 8 91 17 110 19 19 3 60 10 90 16 90 19 189 37 295 55 55 9 126 23 157 31 32 8 68 14 80 14 13 0 52 6 88 14 36 8 103 22 150 31 47 9 103 21 125 27 22 5 60 13 85 18 25 5 62 15 83 21 50 16 72 -2 30 -24 -47 -26 -126 -63 -163 -77 -19 -7 -63 -26 -97 -41 -209 -96 -203 -93 -528 -249 -82 -40 -168 -80 -190 -90 -54 -25 -186 -90 -205 -100 -28 -16 -245 -118 -282 -134 -21 -8 -38 -22 -38 -31 0 -15 25 -64 78 -156 15 -25 41 -69 57 -98 35 -60 58 -65 107 -23 38 31 45 36 273 194 94 65 177 122 185 128 52 37 124 87 185 128 71 48 182 125 200 140 6 4 55 39 110 76 55 38 116 82 136 97 20 16 41 29 47 29 6 0 12 4 14 9 2 5 41 35 87 66 47 31 107 74 134 97 53 45 97 71 105 63 3 -3 -4 -31 -15 -63 -39 -104 -40 -108 -87 -299 -8 -32 -22 -94 -31 -138 -9 -44 -22 -102 -30 -130 -12 -47 -28 -115 -60 -265 -8 -36 -19 -85 -26 -110 -6 -25 -14 -63 -18 -85 -5 -22 -13 -60 -19 -85 -7 -25 -17 -65 -23 -90 -6 -25 -14 -65 -18 -90 -4 -25 -12 -61 -18 -80 -6 -19 -19 -68 -27 -107 -46 -213 -51 -234 -86 -378 -15 -61 -39 -176 -49 -230 -4 -22 -13 -50 -19 -62 -24 -45 -16 -61 41 -76 132 -36 278 -50 527 -49 225 1 408 16 428 37 3 3 1 27 -5 53 -6 26 -19 90 -28 142 -9 52 -23 129 -30 170 -8 41 -21 120 -30 175 -30 189 -47 290 -61 351 -8 33 -14 71 -14 84 0 12 -6 57 -14 99 -8 42 -22 123 -31 181 -9 58 -23 133 -31 167 -8 34 -14 77 -14 96 0 19 -4 47 -10 63 -8 26 -26 126 -51 294 -16 111 -61 295 -81 338 -8 16 -8 26 -1 33 17 17 44 -7 92 -81 23 -38 51 -77 60 -87 9 -10 43 -53 76 -96 99 -129 106 -138 206 -262 52 -66 106 -134 120 -151 13 -17 51 -64 84 -105 33 -41 69 -86 80 -101 11 -15 49 -63 85 -108 36 -45 87 -109 113 -143 27 -34 52 -64 56 -67 4 -3 36 -43 71 -89 35 -47 71 -92 79 -101 16 -16 176 -217 296 -370 78 -100 260 -328 288 -360 12 -14 44 -54 72 -90 27 -37 67 -86 87 -110 20 -25 59 -74 87 -110 28 -36 55 -70 61 -77 30 -36 98 -121 110 -139 14 -20 45 -58 116 -142 17 -20 40 -52 53 -69 12 -18 29 -33 36 -33 18 0 221 177 345 300 86 87 262 283 308 344 28 38 28 50 0 64 -13 7 -42 27 -65 44 -22 18 -94 75 -160 125 -65 51 -192 150 -283 219 -91 69 -167 129 -170 133 -3 4 -43 36 -90 71 -47 35 -87 67 -90 70 -3 3 -23 19 -45 35 -22 17 -42 32 -45 36 -5 5 -127 100 -204 159 -18 14 -64 50 -103 80 -105 83 -448 349 -512 398 -31 24 -67 54 -82 68 -14 13 -30 24 -36 24 -6 0 -16 7 -23 15 -7 8 -66 55 -130 105 -65 49 -124 96 -132 103 -7 7 -51 41 -98 77 -163 123 -175 132 -180 139 -9 12 -404 305 -435 323 -73 41 -57 70 30 57 45 -6 716 -14 814 -10 32 2 -31 371 -64 371 -3 0 -22 -7 -43 -16 -20 -9 -50 -20 -67 -24 -30 -9 -244 -80 -300 -101 -16 -6 -43 -15 -60 -19 -26 -7 -151 -52 -255 -91 -19 -7 -41 -19 -49 -26 -16 -17 -56 -13 -56 4 0 7 32 45 70 85 39 40 97 107 130 148 32 41 62 77 65 80 3 3 41 50 83 105 93 121 162 207 309 390 8 9 62 78 160 200 22 28 61 77 88 110 27 33 88 110 135 170 48 61 102 128 120 150 46 55 227 281 305 381 74 95 224 283 257 323 l23 27 -128 90 c-138 98 -209 144 -287 187 -55 30 -242 122 -290 142 -16 7 -51 23 -77 34 -55 26 -83 18 -91 -26 -2 -16 -15 -53 -27 -83 -12 -30 -25 -66 -30 -80 -28 -80 -42 -117 -49 -135 -10 -23 -49 -124 -81 -210 -33 -90 -50 -136 -66 -173 -8 -18 -14 -37 -14 -43 0 -6 -6 -25 -14 -42 -16 -38 -33 -83 -76 -197 -42 -114 -59 -159 -76 -198 -8 -18 -14 -37 -14 -43 0 -6 -6 -25 -14 -42 -7 -18 -20 -50 -29 -72 -32 -87 -48 -127 -61 -162 -8 -21 -21 -57 -30 -80 -9 -24 -23 -61 -31 -83 -8 -22 -22 -59 -31 -82 -31 -82 -43 -113 -74 -198 -18 -47 -39 -103 -47 -125 -8 -22 -22 -58 -30 -80 -8 -22 -21 -55 -29 -73 -8 -18 -14 -40 -14 -48 0 -9 -6 -28 -14 -42 -17 -35 -40 -108 -62 -199 -10 -44 -22 -73 -30 -73 -12 0 -27 52 -44 155 -18 110 -32 182 -45 230 -7 28 -20 82 -29 120 -8 39 -22 104 -31 145 -10 41 -23 98 -31 126 -8 28 -14 60 -14 71 0 11 -6 39 -14 64 -8 24 -21 80 -30 124 -10 44 -22 98 -28 120 -6 22 -15 63 -18 90 -4 28 -12 64 -18 80 -6 17 -18 64 -27 105 -9 41 -23 107 -32 145 -8 39 -21 93 -28 120 -8 28 -21 86 -30 130 -9 44 -22 105 -30 135 -7 30 -19 78 -25 105 -7 28 -16 71 -21 98 -4 26 -12 62 -18 80 -5 17 -17 68 -26 112 -9 44 -23 100 -31 125 -8 25 -14 55 -14 68 0 13 -6 44 -14 70 -8 26 -21 83 -30 127 -9 44 -23 105 -30 135 -8 30 -20 78 -26 105 -12 48 -32 145 -49 230 -4 23 -11 46 -15 53 -4 7 -12 37 -16 65 -5 29 -18 93 -30 142 -12 50 -24 108 -28 130 -8 45 -20 50 -72 30z m12 -111 c4 -16 12 -51 18 -79 6 -27 15 -66 20 -85 5 -19 18 -80 30 -135 11 -55 27 -122 35 -150 8 -27 21 -86 30 -130 9 -44 23 -107 30 -140 8 -33 21 -91 30 -130 9 -38 20 -83 25 -100 5 -16 12 -48 15 -70 4 -22 10 -53 15 -70 4 -16 18 -75 30 -130 12 -55 28 -122 35 -150 7 -27 21 -88 30 -135 9 -47 21 -98 27 -115 5 -16 13 -50 18 -75 9 -49 61 -275 86 -380 9 -36 22 -94 30 -130 32 -153 43 -200 63 -280 12 -47 26 -105 31 -130 14 -70 47 -216 86 -380 9 -36 22 -94 29 -130 20 -96 33 -145 67 -253 43 -135 29 -141 -57 -25 -67 90 -170 219 -305 378 -36 42 -83 99 -105 125 -22 27 -57 70 -79 95 -51 61 -64 77 -111 135 -44 55 -77 95 -147 176 -25 30 -97 115 -159 189 -62 74 -126 151 -143 171 -17 20 -56 66 -86 103 -30 37 -88 107 -128 154 -98 116 -107 127 -150 181 -20 25 -40 48 -43 51 -6 5 -110 129 -229 275 -30 37 -64 77 -75 89 -11 12 -58 69 -105 126 -47 57 -112 135 -146 174 -33 39 -69 82 -80 95 -10 13 -45 53 -76 89 -32 37 -58 72 -58 79 0 11 61 64 120 103 12 8 41 29 64 46 51 37 226 154 231 154 3 0 33 17 67 38 106 65 420 221 446 222 4 1 25 9 47 20 22 11 45 19 52 20 7 0 27 6 45 14 18 8 49 21 70 30 20 9 42 16 49 16 7 0 31 6 54 14 22 8 67 22 100 31 33 10 76 24 95 31 45 17 53 14 62 -22z m1985 -1045 c162 -74 268 -130 386 -206 234 -150 232 -148 175 -212 -18 -21 -46 -54 -63 -75 -16 -21 -35 -43 -40 -50 -6 -6 -26 -31 -45 -56 -19 -25 -48 -61 -65 -81 -16 -19 -57 -70 -90 -113 -33 -43 -68 -88 -79 -99 -10 -12 -30 -38 -45 -57 -14 -19 -31 -39 -37 -45 -6 -5 -39 -46 -72 -90 -34 -44 -80 -102 -103 -130 -22 -27 -59 -75 -82 -105 -23 -30 -51 -66 -63 -80 -12 -14 -88 -108 -168 -210 -81 -102 -160 -201 -175 -220 -16 -19 -66 -82 -112 -140 -46 -58 -109 -138 -142 -179 -32 -41 -66 -86 -75 -100 -9 -14 -19 -28 -22 -31 -3 -3 -18 -24 -34 -47 -31 -46 -46 -54 -46 -25 0 15 21 69 121 306 16 38 29 73 29 78 0 6 7 26 16 46 37 86 42 99 48 129 4 18 12 35 17 38 5 4 9 13 9 22 0 8 6 29 14 46 26 59 76 189 76 199 0 6 6 24 14 41 7 18 21 52 31 77 9 25 23 60 31 78 8 18 14 37 14 43 0 6 6 25 14 42 8 18 29 70 46 117 18 47 38 101 45 120 8 19 28 73 45 120 18 47 38 100 46 118 8 18 14 37 14 43 0 6 11 34 24 63 13 29 29 68 34 87 6 19 20 59 32 89 12 30 25 66 30 80 5 14 18 50 30 80 12 30 26 71 32 90 5 19 14 40 18 45 4 6 19 45 34 88 14 43 28 83 31 88 10 15 32 11 102 -22z m-4037 -1214 c7 -8 17 -15 23 -15 6 0 92 -40 191 -89 100 -49 231 -112 291 -141 163 -78 383 -184 530 -255 72 -35 189 -91 260 -125 72 -34 180 -86 240 -115 207 -100 585 -283 845 -408 235 -113 301 -142 373 -163 84 -26 73 -64 -17 -64 -28 0 -75 -4 -105 -10 -31 -5 -105 -17 -166 -26 -60 -9 -128 -21 -150 -26 -22 -6 -65 -14 -95 -18 -98 -14 -482 -83 -564 -102 -26 -6 -74 -14 -105 -19 -98 -14 -286 -48 -393 -70 -26 -6 -71 -14 -100 -19 -180 -29 -242 -40 -260 -46 -11 -3 -43 -10 -72 -14 -28 -5 -91 -16 -141 -25 -49 -9 -128 -22 -175 -30 -90 -14 -165 -29 -240 -46 -25 -6 -70 -15 -100 -19 -154 -23 -248 -40 -280 -49 -55 -17 -108 -14 -114 7 -8 30 -25 191 -37 361 -15 221 4 493 53 761 5 30 14 76 18 103 5 26 13 62 19 80 9 32 21 75 62 217 12 41 26 79 30 85 5 5 9 15 9 23 0 8 6 28 14 45 7 18 21 52 31 77 9 25 23 59 30 75 8 17 16 40 20 53 8 26 55 31 75 7z m3798 -1137 c11 -15 31 -145 25 -169 -4 -14 -37 -17 -306 -21 -166 -3 -308 -2 -315 1 -9 5 1 13 30 24 40 15 254 83 358 112 25 7 74 24 110 38 78 30 85 31 98 15z m-873 -177 c22 -10 46 -16 53 -14 17 6 15 -5 -9 -43 -23 -38 -37 -41 -78 -19 -19 9 -30 25 -35 46 -10 54 4 60 69 30z m9 -337 c8 -43 21 -133 31 -199 9 -66 23 -147 31 -181 8 -33 14 -72 14 -86 0 -14 6 -56 14 -94 8 -38 22 -116 30 -174 9 -58 23 -139 31 -180 19 -102 41 -235 60 -355 9 -55 22 -134 30 -175 8 -41 21 -120 30 -175 9 -55 20 -120 25 -145 5 -25 12 -72 16 -105 4 -33 13 -78 21 -99 7 -22 10 -43 6 -46 -30 -27 -380 -48 -513 -32 -47 6 -128 16 -180 22 -149 17 -152 20 -126 114 22 77 43 163 61 246 24 116 46 210 61 265 7 28 23 100 35 160 12 61 25 114 30 120 5 5 9 22 9 39 0 16 7 52 15 80 7 28 21 85 30 126 16 76 35 161 59 260 13 53 30 126 62 275 8 39 20 88 25 110 11 43 19 86 39 205 20 121 20 124 31 113 5 -5 16 -45 23 -89z m-439 36 c3 -5 1 -10 -4 -10 -6 0 -19 -8 -29 -17 -10 -10 -117 -84 -237 -165 -121 -81 -254 -170 -295 -199 -41 -29 -124 -86 -185 -127 -194 -133 -239 -164 -298 -209 -32 -24 -66 -43 -75 -41 -18 3 -102 141 -102 167 0 13 20 26 68 46 37 16 74 34 83 42 8 7 19 13 24 13 10 0 94 41 610 298 231 115 423 210 427 211 4 0 10 -3 13 -9z m805 -90 c30 -25 75 -61 100 -80 25 -19 65 -51 90 -72 25 -20 86 -68 135 -107 50 -39 95 -74 100 -78 24 -20 271 -212 319 -248 29 -22 70 -55 92 -72 21 -18 86 -69 144 -113 58 -44 121 -93 140 -109 19 -16 90 -71 157 -123 67 -51 187 -145 268 -208 81 -63 182 -142 225 -175 42 -33 97 -76 121 -96 24 -19 125 -98 224 -174 99 -76 216 -167 260 -202 91 -71 87 -68 138 -106 20 -15 37 -34 37 -41 0 -49 -526 -575 -561 -561 -8 3 -24 20 -36 38 -13 17 -46 62 -75 98 -29 37 -83 104 -119 151 -36 46 -75 95 -86 109 -12 13 -95 116 -184 229 -90 113 -168 210 -174 216 -5 6 -73 91 -150 189 -77 98 -163 205 -190 239 -28 34 -57 71 -65 82 -17 25 -207 263 -295 370 -69 84 -92 114 -155 194 -39 50 -101 127 -390 485 -89 110 -168 206 -190 231 -11 12 -17 24 -13 27 6 7 51 -24 133 -93z"/> <path d="M1585 7390 c-3 -5 23 -40 58 -77 107 -113 433 -435 451 -445 28 -16 18 -36 -65 -120 -183 -186 -509 -662 -476 -695 7 -7 57 37 57 51 0 15 105 179 205 321 48 69 218 278 254 312 10 10 26 30 36 46 9 15 22 27 28 27 6 0 145 -134 309 -297 164 -164 307 -302 318 -307 30 -14 26 -57 -8 -80 -28 -19 -122 -124 -166 -186 -132 -183 -190 -290 -157 -290 7 0 69 89 80 115 2 6 7 12 11 15 3 3 22 28 40 55 69 103 234 300 254 305 30 8 33 46 4 56 -13 5 -138 126 -278 268 -140 143 -277 280 -305 304 -73 66 -75 73 -26 120 48 45 56 74 14 47 -16 -10 -39 -29 -52 -42 -13 -12 -27 -23 -31 -23 -4 0 -121 115 -261 256 -140 140 -262 260 -271 265 -11 6 -19 5 -23 -1z"/> <path d="M2840 6128 c0 -17 489 -502 497 -494 7 7 -5 21 -157 181 -158 167 -318 325 -329 325 -6 0 -11 -6 -11 -12z"/> <path d="M3421 5450 c-46 -41 -151 -181 -151 -202 0 -40 25 -12 183 199 21 28 -1 30 -32 3z"/> <path d="M385 4500 c-15 -24 56 -30 329 -28 242 3 281 5 281 18 0 13 -41 15 -302 18 -196 1 -304 -1 -308 -8z"/> <path d="M3115 4090 c-6 -10 21 -77 36 -86 5 -3 9 4 9 15 0 11 -4 23 -10 26 -5 3 -10 15 -10 25 0 22 -16 35 -25 20z"/> <path d="M2187 3914 c-12 -12 -8 -62 8 -101 8 -19 15 -43 15 -52 0 -9 7 -29 15 -45 8 -15 15 -34 15 -42 0 -7 11 -37 24 -66 14 -29 36 -80 50 -114 72 -176 258 -458 393 -596 30 -32 60 -58 64 -58 15 0 10 -49 -6 -57 -16 -9 -364 -353 -523 -517 -51 -53 -99 -96 -107 -96 -7 0 -23 15 -35 34 -11 19 -24 36 -28 38 -28 12 -282 333 -347 439 -15 24 -108 180 -122 204 -61 106 -203 415 -203 444 0 9 -7 25 -15 35 -8 11 -15 29 -15 41 0 12 -4 25 -9 31 -8 8 -29 74 -50 164 -8 32 -21 70 -42 128 -15 40 -31 26 -24 -20 9 -55 42 -187 53 -213 5 -11 21 -58 36 -105 34 -103 125 -318 179 -420 22 -41 52 -97 67 -125 64 -123 235 -369 355 -511 28 -32 80 -89 116 -126 l67 -67 -194 -192 c-107 -106 -197 -195 -201 -198 -34 -26 -143 -153 -138 -161 12 -20 32 -1 363 333 l192 195 73 -72 c242 -237 641 -498 955 -625 28 -11 74 -30 101 -41 121 -49 318 -110 461 -143 227 -53 410 -77 590 -80 91 -1 150 -6 151 -12 0 -5 1 -176 2 -380 2 -321 4 -370 17 -370 13 0 15 49 16 373 1 205 5 376 8 380 4 3 67 7 142 9 74 1 169 7 212 13 42 7 109 15 147 20 39 4 90 13 115 19 25 6 95 22 155 37 151 37 355 101 440 139 17 7 66 28 110 47 147 61 319 154 480 260 122 80 163 118 127 118 -10 0 -40 -15 -66 -32 -71 -49 -178 -115 -286 -178 -74 -42 -338 -167 -374 -176 -15 -3 -29 -10 -32 -15 -3 -5 -15 -9 -27 -9 -12 0 -31 -7 -41 -15 -11 -8 -30 -15 -42 -15 -13 0 -25 -4 -29 -9 -3 -5 -30 -15 -60 -21 -30 -6 -57 -16 -60 -21 -4 -5 -21 -9 -38 -9 -18 -1 -43 -7 -57 -15 -14 -8 -35 -14 -48 -15 -13 0 -44 -6 -70 -14 -61 -18 -219 -46 -263 -46 -19 0 -70 -7 -114 -14 -85 -15 -310 -25 -320 -14 -4 3 -7 177 -8 385 -2 329 -4 378 -17 378 -13 0 -15 -50 -17 -385 l-1 -385 -124 4 c-67 1 -148 8 -178 13 -30 6 -91 13 -135 18 -106 10 -300 48 -370 72 -16 6 -43 12 -60 15 -16 3 -44 11 -62 19 -17 8 -39 14 -50 14 -10 0 -31 7 -47 15 -15 8 -34 15 -42 15 -7 0 -28 6 -46 14 -18 8 -49 21 -70 30 -20 9 -39 16 -42 16 -12 0 -297 137 -356 170 -148 85 -278 170 -395 259 -74 56 -249 203 -253 213 -2 4 -19 17 -38 28 -19 12 -34 27 -34 33 0 6 136 147 302 313 166 166 305 310 310 318 14 25 51 19 72 -12 10 -15 58 -60 106 -101 173 -146 401 -285 590 -361 30 -12 69 -28 85 -35 91 -39 195 -58 195 -36 0 4 -30 18 -67 31 -303 101 -566 250 -818 466 -33 28 -70 57 -82 63 -13 6 -23 20 -23 30 0 10 10 25 23 34 25 17 351 339 504 500 57 59 109 107 117 107 7 0 20 -7 27 -16 17 -20 139 -119 199 -160 105 -73 320 -159 320 -128 0 5 -51 33 -113 63 -61 29 -131 66 -155 82 -24 16 -45 29 -48 29 -11 0 -193 142 -197 155 -3 7 69 87 179 196 181 180 234 239 217 239 -15 0 -117 -94 -276 -252 -82 -82 -152 -148 -156 -148 -5 0 -20 12 -35 27 -14 14 -29 23 -33 19 -4 -3 3 -15 15 -26 25 -24 28 -53 8 -72 -105 -99 -590 -587 -597 -600 -13 -25 -46 -22 -60 5 -7 12 -36 49 -64 82 -82 95 -196 254 -272 380 -29 49 -113 228 -143 305 -18 47 -39 100 -46 118 -8 18 -14 42 -14 53 0 12 -6 33 -14 47 -8 15 -18 37 -23 50 -4 13 -12 20 -16 16z"/> <path d="M5105 3230 c-66 -33 -125 -60 -132 -60 -6 0 -33 -11 -60 -24 -39 -20 -45 -26 -29 -32 42 -16 376 133 376 169 0 17 -42 2 -155 -53z"/> <path d="M5820 2543 c-8 -3 -44 -24 -80 -47 -36 -23 -74 -46 -85 -53 -21 -13 -122 -62 -195 -95 -25 -11 -54 -25 -65 -31 -33 -17 -177 -68 -215 -76 -19 -4 -45 -13 -57 -19 -12 -7 -30 -12 -40 -12 -16 -1 -63 -32 -63 -42 0 -6 97 14 170 35 89 25 159 51 223 83 16 8 33 14 39 14 14 0 172 80 256 129 112 67 186 142 112 114z"/> <path d="M7280 1686 c0 -18 98 -108 110 -101 15 9 14 12 -36 65 -46 49 -74 63 -74 36z"/> </g> </svg> 